<svg width="16" height="16" viewBox="0 0 16 16" fill="none" xmlns="http://www.w3.org/2000/svg">
<g clip-path="url(#clip0_62_1291)">
<path d="M7.99984 11.9998C6.93897 11.9998 5.92156 11.5784 5.17141 10.8283C4.42126 10.0781 3.99984 9.0607 3.99984 7.99984C3.99984 6.93897 4.42126 5.92156 5.17141 5.17141C5.92156 4.42126 6.93897 3.99984 7.99984 3.99984C9.0607 3.99984 10.0781 4.42126 10.8283 5.17141C11.5784 5.92156 11.9998 6.93897 11.9998 7.99984C11.9998 9.0607 11.5784 10.0781 10.8283 10.8283C10.0781 11.5784 9.0607 11.9998 7.99984 11.9998ZM7.33317 0.666504H8.6665V2.6665H7.33317V0.666504ZM7.33317 13.3332H8.6665V15.3332H7.33317V13.3332ZM2.34317 3.28584L3.28584 2.34317L4.69984 3.75717L3.75717 4.69984L2.34317 3.2865V3.28584ZM11.2998 12.2425L12.2425 11.2998L13.6565 12.7138L12.7138 13.6565L11.2998 12.2425ZM12.7138 2.3425L13.6565 3.28584L12.2425 4.69984L11.2998 3.75717L12.7138 2.34317V2.3425ZM3.75717 11.2998L4.69984 12.2425L3.28584 13.6565L2.34317 12.7138L3.75717 11.2998ZM15.3332 7.33317V8.6665H13.3332V7.33317H15.3332ZM2.6665 7.33317V8.6665H0.666504V7.33317H2.6665Z" fill="white" fill-opacity="1"/>
</g>
<defs>
<clipPath id="clip0_62_1291">
<rect width="16" height="16" fill="white"/>
</clipPath>
</defs>
</svg>