<svg xmlns="http://www.w3.org/2000/svg" xmlns:xlink="http://www.w3.org/1999/xlink" viewBox="0 0 50 50"><g id="ss8959210919_1"><g><defs><linearGradient id="idss8959210919_2g-970538268" x1="0.49748743718592964" x2="0.5025125628140703" y1="1" y2="0"><stop offset="0" stop-color="rgb(27,27,27)" stop-opacity="1"/><stop offset="1" stop-color="rgb(35,35,35)" stop-opacity="1"/></linearGradient></defs><path d="M 10.365 50 C 4.64 50 0 50 0 50 L 0 0 C 0 0 4.64 0 10.365 0 L 39.635 0 C 45.36 0 50 0 50 0 L 50 50 C 50 50 45.36 50 39.635 50 Z" fill="url(#idss8959210919_2g-970538268)"/></g><path d="M 20.234 34.058 C 17.504 34.058 15.291 34.058 15.291 34.058 L 15.291 15.274 C 15.291 15.274 17.504 15.274 20.234 15.274 L 29.132 15.274 C 31.862 15.274 34.075 15.274 34.075 15.274 L 34.075 34.058 C 34.075 34.058 31.862 34.058 29.132 34.058 Z" fill="rgb(255,255,255)" stroke-width="7.909" stroke="rgb(255,255,255)" stroke-linejoin="round" stroke-dasharray=""/><path d="M 26.444 17.858 C 27.739 17.511 29.069 18.28 29.416 19.574 L 31.301 26.606 C 31.648 27.901 30.879 29.231 29.585 29.578 L 22.553 31.462 C 21.259 31.809 19.928 31.041 19.581 29.747 L 17.697 22.715 C 17.35 21.42 18.119 20.09 19.413 19.743 L 26.444 17.859 Z" fill="rgb(0,0,0)"/></g></svg>