<svg width="32" height="32" viewBox="0 0 32 32" fill="none" xmlns="http://www.w3.org/2000/svg">
<path d="M0 8C0 3.58172 3.58172 0 8 0H24C28.4183 0 32 3.58172 32 8V24C32 28.4183 28.4183 32 24 32H8C3.58172 32 0 28.4183 0 24V8Z" fill="white"/>
<path d="M13.7288 14.0412V25.1923C13.7288 25.8444 14.5578 26.1207 14.949 25.5997L23.3632 14.3695C23.698 13.9222 23.3798 13.2837 22.8208 13.2837H14.4863C14.068 13.2837 13.7295 13.6233 13.7295 14.0412H13.7288Z" fill="#14151A"/>
<path d="M13.7288 21.4552V18.5796L18.0371 18.3755L13.7288 21.4552Z" fill="#14151A"/>
<path d="M9.17907 18.5884H17.5143C17.9326 18.5884 18.2711 18.2488 18.2711 17.8309V6.67977C18.2711 6.02767 17.4421 5.75132 17.0509 6.2724L8.63667 17.5026C8.30191 17.9498 8.62012 18.5884 9.17907 18.5884Z" fill="#0B0C0E"/>
</svg>
