<svg width="630" height="250" viewBox="0 0 630 250" fill="none" xmlns="http://www.w3.org/2000/svg">
<path fill-rule="evenodd" clip-rule="evenodd" d="M314.786 249.694C383.737 249.694 439.633 193.798 439.633 124.847C439.633 93.3658 427.981 64.606 408.754 42.6451L396.181 56.5205C383.378 70.6506 383.631 91.8868 387.293 110.6C391.617 132.699 385.823 156.491 369.54 174.461C353.257 192.432 330.149 200.536 307.732 198.403C288.75 196.598 267.592 198.433 254.788 212.563L242.21 226.444C262.662 241.08 287.718 249.694 314.786 249.694ZM220.817 207.049L233.39 193.173C246.194 179.043 245.941 157.808 242.279 139.095C237.954 116.996 243.748 93.2033 260.031 75.2333C276.314 57.2633 299.422 49.1592 321.839 51.2911C340.821 53.0963 361.979 51.2614 374.783 37.1312L387.361 23.2498C366.909 8.61384 341.853 0 314.786 0C245.834 0 189.938 55.896 189.938 124.847C189.938 156.328 201.591 185.088 220.817 207.049Z" fill="url(#paint0_linear_105_125)"/>
<path d="M16.9413 95.1375V126.967H42.3532C47.4869 126.967 51.5083 125.341 54.4174 122.09C57.3265 118.753 58.7383 115.073 58.6527 111.052C58.6527 107.031 57.1982 103.394 54.2891 100.143C51.4655 96.806 47.4869 95.1375 42.3532 95.1375H16.9413ZM42.3532 78.9663C47.658 78.9663 52.4495 79.9075 56.7276 81.7899C61.0057 83.5867 64.4709 85.9824 67.1234 88.9771C69.7758 91.8862 71.7865 95.2659 73.1555 99.1162C74.61 102.881 75.3373 106.774 75.3373 110.795C75.3373 114.731 74.61 118.624 73.1555 122.475C71.7865 126.239 69.7758 129.619 67.1234 132.614C64.4709 135.523 61.0057 137.919 56.7276 139.801C52.4495 141.598 47.658 142.496 42.3532 142.496H16.9413V170.732H0V79.0947C4.70591 79.0947 11.7648 79.0947 21.1766 79.0947C30.5884 79.0091 37.6473 78.9663 42.3532 78.9663Z" fill="url(#paint1_linear_105_125)"/>
<path d="M162.069 79.0947V130.56C162.069 142.453 158.518 152.122 151.417 159.566C144.315 167.01 134.689 170.732 122.539 170.732C110.732 170.732 101.192 167.309 93.919 160.464C86.7318 153.619 83.1382 143.993 83.1382 131.587H99.8227C99.8227 147.074 107.395 154.817 122.539 154.817C129.898 154.817 135.502 152.592 139.352 148.143C143.203 143.608 145.128 137.747 145.128 130.56V94.8809H118.047V79.0947H162.069Z" fill="url(#paint2_linear_105_125)"/>
<path d="M484.061 131.844V154.945H509.986C512.639 154.945 515.12 154.688 517.43 154.175C519.826 153.576 521.965 152.421 523.847 150.71C525.815 148.999 526.799 146.817 526.799 144.164C526.799 140.4 524.96 137.405 521.28 135.18C517.687 132.956 513.922 131.844 509.986 131.844H484.061ZM484.061 96.2925V116.956H509.986C519.398 116.956 524.104 113.747 524.104 107.33C524.104 104.678 522.949 102.196 520.639 99.8861C518.329 97.4904 514.778 96.2925 509.986 96.2925H484.061ZM509.986 78.9634C521.28 78.9634 528.199 83.2317 532.446 87.4368C536.693 91.642 540.917 98.3032 540.917 106.945C540.917 114.988 537.024 120.763 529.238 124.271C533.944 125.726 537.494 128.549 539.89 132.742C542.372 136.849 543.612 140.699 543.612 144.293C543.612 161.919 532.404 170.731 509.986 170.731H467.376V78.9634H509.986Z" fill="url(#paint3_linear_105_125)"/>
<path d="M625.433 94.1381C628.322 98.5336 628.945 104.149 628.945 104.149H613.187C611.561 101.411 609.892 99.0579 605.956 97.09C602.02 95.122 597.7 94.1381 592.994 94.1381C586.919 94.1381 582.298 95.2504 579.133 97.475C575.967 99.6996 574.384 102.566 574.384 106.074C574.384 108.555 575.368 110.609 577.336 112.234C579.304 113.775 581.614 114.887 584.266 115.571C586.919 116.256 590.298 116.855 594.405 117.368C598.598 117.882 602.277 118.48 605.443 119.165C608.609 119.849 610.962 120.073 614.299 121.527C617.636 122.896 617.238 122.698 619.579 123.869C620.594 124.376 623.763 126.21 626.604 129.723C629.444 133.235 630 137.194 630 142.08C630 148.497 628.203 153.93 624.61 158.379C621.016 162.743 616.438 165.908 610.877 167.876C605.401 169.759 599.198 170.7 592.267 170.7C572.16 170.7 562.346 158.896 558.37 148.882C556.921 145.231 556.921 141.566 556.921 141.566H572.488C574.37 146.272 578.601 149.626 582.114 152.219C586.734 154.614 587.968 155.555 592.524 155.555C598.428 155.555 603.347 154.443 607.283 152.219C611.219 149.994 613.187 146.614 613.187 142.08C613.187 134.721 606.855 132.625 592.994 131.17C587.774 130.571 580.025 129.493 576.26 128.552C576.26 128.552 572.202 127.935 568.608 125.967C565.015 123.999 562.277 121.304 560.395 117.882C558.598 114.459 557.699 110.352 557.699 105.561C557.699 99.7424 559.496 94.7798 563.09 90.6728C566.683 86.5658 571.004 83.6995 576.052 82.0738C581.101 80.3626 586.576 79.4642 592.48 79.3786C610.192 79.3786 619.579 85.2326 625.433 94.1381Z" fill="url(#paint4_linear_105_125)"/>
<path d="M360.67 124.847C360.67 150.188 340.127 170.731 314.786 170.731C289.444 170.731 268.902 150.188 268.902 124.847C268.902 99.5063 289.444 78.9634 314.786 78.9634C340.127 78.9634 360.67 99.5063 360.67 124.847Z" fill="url(#paint5_linear_105_125)"/>
<defs>
<linearGradient id="paint0_linear_105_125" x1="260.567" y1="25.6097" x2="249.183" y2="261.503" gradientUnits="userSpaceOnUse">
<stop stop-color="white"/>
<stop offset="0.29" stop-color="#F9CAFD"/>
<stop offset="0.675" stop-color="#D22BF5"/>
<stop offset="1" stop-color="#4E03BF"/>
</linearGradient>
<linearGradient id="paint1_linear_105_125" x1="-1.28641e-07" y1="79" x2="630" y2="171" gradientUnits="userSpaceOnUse">
<stop stop-color="white"/>
<stop offset="0.358493" stop-color="#9F1BE0"/>
<stop offset="0.53209" stop-color="white"/>
<stop offset="0.677152" stop-color="#D300FF"/>
<stop offset="1" stop-color="#FAD9FF"/>
</linearGradient>
<linearGradient id="paint2_linear_105_125" x1="-1.28641e-07" y1="79" x2="630" y2="171" gradientUnits="userSpaceOnUse">
<stop stop-color="white"/>
<stop offset="0.358493" stop-color="#9F1BE0"/>
<stop offset="0.53209" stop-color="white"/>
<stop offset="0.677152" stop-color="#D300FF"/>
<stop offset="1" stop-color="#FAD9FF"/>
</linearGradient>
<linearGradient id="paint3_linear_105_125" x1="-1.28641e-07" y1="79" x2="630" y2="171" gradientUnits="userSpaceOnUse">
<stop stop-color="white"/>
<stop offset="0.358493" stop-color="#9F1BE0"/>
<stop offset="0.53209" stop-color="white"/>
<stop offset="0.677152" stop-color="#D300FF"/>
<stop offset="1" stop-color="#FAD9FF"/>
</linearGradient>
<linearGradient id="paint4_linear_105_125" x1="-1.28641e-07" y1="79" x2="630" y2="171" gradientUnits="userSpaceOnUse">
<stop stop-color="white"/>
<stop offset="0.358493" stop-color="#9F1BE0"/>
<stop offset="0.53209" stop-color="white"/>
<stop offset="0.677152" stop-color="#D300FF"/>
<stop offset="1" stop-color="#FAD9FF"/>
</linearGradient>
<linearGradient id="paint5_linear_105_125" x1="-1.28641e-07" y1="79" x2="630" y2="171" gradientUnits="userSpaceOnUse">
<stop stop-color="white"/>
<stop offset="0.358493" stop-color="#9F1BE0"/>
<stop offset="0.53209" stop-color="white"/>
<stop offset="0.677152" stop-color="#D300FF"/>
<stop offset="1" stop-color="#FAD9FF"/>
</linearGradient>
</defs>
</svg>
