<svg width="1081" height="513" viewBox="0 0 1081 513" fill="none" xmlns="http://www.w3.org/2000/svg">
<path d="M100.418 333.125H58.2817C60.9084 324.698 62.2218 312.221 62.2218 295.695V217.004C62.2218 199.821 60.9084 186.25 58.2817 176.181H100.637C97.7914 183.514 96.3686 191.941 96.3686 201.463V205.294H98.5575C103.045 195.444 110.159 187.564 119.899 181.763C129.64 175.962 141.132 173.007 154.374 173.007C173.527 173.007 188.85 178.48 200.451 189.424C212.052 200.369 217.853 214.596 217.853 232.217C217.853 249.838 212.052 264.066 200.451 275.01C188.85 285.955 173.527 291.427 154.374 291.427C141.241 291.427 129.859 288.581 120.118 282.671C110.378 276.871 103.154 269.1 98.5575 259.141H96.3686V295.695C96.3686 311.236 97.6819 323.713 100.418 333.125ZM141.132 265.817C154.156 265.817 164.881 262.643 173.199 256.404C181.407 250.166 185.566 242.177 185.566 232.217C185.566 222.258 181.407 214.049 173.199 207.811C164.881 201.572 154.156 198.399 141.132 198.399C128.545 198.399 118.039 201.572 109.721 207.92C101.403 214.378 97.2442 222.476 97.2442 232.217C97.2442 241.301 101.513 249.181 109.94 255.857C118.367 262.533 128.764 265.817 141.132 265.817ZM283.301 288.253H241.493C244.01 279.607 245.214 268.991 245.214 256.404V209.562C245.214 196.1 244.01 185.046 241.493 176.181H284.942C283.301 178.917 281.987 182.529 281.002 187.235C279.908 191.941 279.361 196.538 279.361 201.025V210.875H281.331C284.067 198.946 289.649 189.643 297.857 182.967C306.065 176.291 315.915 173.007 327.298 173.007C335.944 173.007 343.386 174.321 349.734 177.057V207.592C347.217 205.075 343.277 202.995 338.023 201.354C332.66 199.712 327.516 198.836 322.373 198.836C315.478 198.836 308.692 200.478 302.125 203.871C295.449 207.264 289.977 212.079 285.708 218.208C281.331 224.337 279.142 231.013 279.142 238.237V263.409C279.142 273.697 280.565 282.015 283.301 288.253ZM405.989 155.277C402.267 158.123 397.452 159.546 391.432 159.546C385.413 159.546 380.597 158.123 376.876 155.277C373.046 152.432 371.185 148.82 371.185 144.333C371.185 139.845 373.046 136.234 376.876 133.388C380.597 130.543 385.413 129.12 391.432 129.12C397.452 129.12 402.267 130.543 405.989 133.388C409.71 136.234 411.57 139.845 411.57 144.333C411.57 148.82 409.71 152.432 405.989 155.277ZM412.446 288.253H370.309C373.046 279.388 374.359 267.677 374.359 253.012V196.976C374.359 187.673 373.921 180.668 373.046 176.181C378.299 178.261 384.537 179.246 391.651 179.246C398.765 179.246 404.785 178.261 409.819 176.181C408.834 181.106 408.396 188.001 408.396 196.976V253.012C408.396 267.677 409.71 279.388 412.446 288.253ZM534.915 288.253H484.461C483.476 281.686 480.192 272.383 474.392 260.235L445.936 206.169C439.698 193.692 433.569 183.733 427.549 176.181H469.248C470.233 182.31 472.859 189.534 477.128 197.742L502.41 248.305C505.584 254.434 507.882 259.688 509.414 264.066H511.165C512.807 259.578 515.105 254.216 518.06 248.087L543.67 197.742C547.72 189.971 550.237 182.748 551.332 176.181H592.045C586.244 183.405 580.006 193.364 573.439 206.169L545.203 260.454C539.402 271.836 535.9 281.139 534.915 288.253ZM653.882 291.427C636.042 291.427 622.142 287.925 612.402 280.811C602.552 273.806 597.627 264.503 597.627 253.012C597.627 241.52 602.552 232.327 612.292 225.431C622.033 218.536 636.042 215.144 654.1 215.144C666.468 215.144 677.303 217.223 686.606 221.491C695.799 225.76 702.256 231.123 705.868 237.58H708.385V222.805C708.385 201.682 692.735 192.817 664.169 192.817C654.538 192.817 645.126 193.802 636.042 195.881C626.849 197.961 619.297 200.697 613.277 203.98V181.763C620.829 179.136 629.694 177.057 639.763 175.415C649.832 173.773 659.901 173.007 669.97 173.007C690.983 173.007 707.51 176.072 720.752 183.076C733.886 190.19 741.328 202.667 741.328 219.412V253.997C741.328 269.428 742.641 280.92 745.268 288.253H704.992C707.291 283.875 708.385 278.075 708.385 270.742V268.115H706.087C702.475 275.01 696.127 280.592 686.824 284.86C677.522 289.238 666.577 291.427 653.882 291.427ZM668 271.18C681.681 271.18 693.829 268.553 701.49 262.752C705.321 259.797 707.181 256.404 707.181 252.355C707.181 246.992 703.241 242.505 695.361 239.003C687.481 235.5 678.397 233.749 668 233.749C644.25 233.749 630.351 240.863 630.351 252.355C630.351 263.847 644.36 271.18 668 271.18ZM834.575 291.427C806.776 291.427 784.449 280.92 784.449 251.917V195.881H757.088V176.181H784.449V139.408L817.392 132.294V176.181H867.956V195.881H817.392V242.505C817.392 259.141 827.79 266.692 843.55 266.692C848.475 266.692 853.4 265.926 858.325 264.503C863.25 263.081 867.08 261.22 869.817 258.922V284.203C865.767 286.392 860.514 288.143 853.838 289.457C847.161 290.77 840.704 291.427 834.575 291.427ZM964.158 291.427C940.08 291.427 920.599 285.955 905.605 275.12C890.611 264.284 883.059 249.947 883.059 232.217C882.403 197.742 915.893 172.57 961.313 173.007C982.545 173.007 999.399 176.728 1011.77 184.28C1024.13 191.832 1030.37 201.135 1030.37 212.298C1030.37 223.352 1025.23 231.56 1014.94 236.923C1004.54 242.286 990.315 245.022 972.257 245.022C951.791 245.022 932.747 240.754 915.346 232.217L914.032 233.312C914.689 240.644 917.863 247.211 923.445 252.793C929.026 258.374 936.14 262.643 944.567 265.379C952.995 268.224 962.079 269.647 971.819 269.647C982.983 269.647 993.599 268.334 1003.56 265.598C1013.52 262.971 1021.4 259.25 1027.42 254.434L1028.07 278.622C1021.4 282.562 1012.1 285.626 1000.06 287.925C988.017 290.332 976.088 291.427 964.158 291.427ZM963.283 228.824C974.118 228.824 982.764 227.511 989.221 224.884C995.678 222.367 998.962 218.208 998.962 212.517C998.962 207.483 995.569 203.105 988.783 199.274C981.888 195.553 972.585 193.692 960.875 193.692C949.93 193.692 939.971 195.991 930.996 200.587C921.912 205.294 916.44 211.423 914.47 219.193C929.136 225.65 945.443 228.824 963.283 228.824Z" fill="#7F00FF"/>
<path d="M709.139 345.992C701.793 345.992 696.671 342.083 696.671 336.624C696.671 331.164 701.793 327.255 709.139 327.255C716.419 327.255 721.406 331.164 721.406 336.624C721.406 342.083 716.419 345.992 709.139 345.992ZM687.572 456.324C681.236 456.324 675.238 455.448 669.644 453.695L669.509 441.159C674.025 443.248 678.675 444.327 683.461 444.327C692.559 444.327 698.625 439.407 698.625 429.499V368.368C698.625 362.842 698.288 358.798 697.682 356.237C700.917 357.517 704.759 358.124 709.139 358.124C713.52 358.124 717.227 357.517 720.328 356.237C719.721 359.27 719.451 363.314 719.451 368.368V429.364C719.451 447.764 705.635 456.324 687.572 456.324ZM781.323 427.207C767.372 427.207 756.184 423.838 747.692 417.098C739.199 410.358 734.953 401.596 734.953 390.745C734.953 379.894 739.199 371.132 747.692 364.392C756.184 357.652 767.372 354.282 781.323 354.282C795.275 354.282 806.463 357.652 814.888 364.392C823.313 371.132 827.559 379.894 827.559 390.745C827.559 401.596 823.313 410.358 814.888 417.098C806.396 423.838 795.208 427.207 781.323 427.207ZM762.25 407.797C767.237 412.043 773.573 414.2 781.323 414.2C789.074 414.2 795.41 412.043 800.465 407.797C805.452 403.551 807.946 397.822 807.946 390.745C807.946 383.601 805.452 377.872 800.465 373.558C795.41 369.312 789.074 367.155 781.323 367.155C773.573 367.155 767.237 369.312 762.25 373.558C757.195 377.872 754.701 383.601 754.701 390.745C754.701 397.822 757.195 403.551 762.25 407.797ZM902.776 427.207C894.688 427.207 887.611 425.388 881.545 421.748C875.479 418.109 871.031 413.256 868.268 407.19H866.785V409.549C866.785 415.548 867.729 420.737 869.548 425.253H843.465C845.083 418.917 845.891 410.493 845.891 399.978V351.654C845.891 341.476 845.083 333.793 843.465 328.603H869.413C867.661 334.197 866.785 341.881 866.785 351.654V374.165H868.268C871.031 368.031 875.479 363.179 881.545 359.607C887.544 356.035 894.621 354.282 902.776 354.282C914.503 354.282 923.939 357.652 931.083 364.392C938.16 371.132 941.732 379.894 941.732 390.745C941.732 401.596 938.16 410.358 931.083 417.098C923.939 423.838 914.503 427.207 902.776 427.207ZM894.486 411.436C902.506 411.436 909.111 409.482 914.234 405.64C919.288 401.798 921.85 396.878 921.85 390.745C921.85 384.612 919.288 379.557 914.234 375.715C909.111 371.873 902.506 369.919 894.486 369.919C886.735 369.919 880.265 371.873 875.142 375.782C870.02 379.759 867.459 384.746 867.459 390.745C867.459 396.339 870.087 401.192 875.277 405.303C880.467 409.414 886.87 411.436 894.486 411.436ZM994.438 427.207C988.237 427.207 980.823 426.466 972.264 424.916C963.704 423.433 957.032 421.748 952.381 419.861L952.651 403.551C957.234 406.381 963.435 408.673 971.185 410.493C978.936 412.312 986.215 413.256 993.09 413.256C1007.58 413.256 1014.86 410.358 1014.86 404.562C1014.86 389.666 954.403 403.079 954.403 375.311C954.403 369.042 958.043 363.988 965.254 360.078C972.466 356.237 981.902 354.282 993.629 354.282C998.954 354.282 1004.88 354.754 1011.42 355.765C1017.96 356.776 1023.49 358.056 1027.87 359.539L1028.41 374.569C1024.97 372.749 1020.05 371.199 1013.65 369.784C1007.24 368.368 1001.18 367.694 995.314 367.694C981.093 367.694 974.016 370.39 974.016 375.715C974.016 389.532 1034.61 376.793 1034.61 404.966C1034.61 411.504 1031.1 416.895 1024.03 421.007C1016.95 425.118 1007.11 427.207 994.438 427.207Z" fill="white"/>
</svg>
