<svg width="1080" height="512" viewBox="0 0 1080 512" fill="none" xmlns="http://www.w3.org/2000/svg">
<path d="M99.5531 332.872H57.4168C60.0434 324.445 61.3568 311.968 61.3568 295.442V216.751C61.3568 199.568 60.0434 185.997 57.4168 175.928H99.772C96.9264 183.261 95.5036 191.688 95.5036 201.21V205.041H97.6925C102.18 195.191 109.294 187.311 119.034 181.51C128.775 175.709 140.267 172.754 153.509 172.754C172.662 172.754 187.985 178.227 199.586 189.171C211.187 200.116 216.988 214.344 216.988 231.964C216.988 249.585 211.187 263.813 199.586 274.757C187.985 285.702 172.662 291.174 153.509 291.174C140.376 291.174 128.994 288.328 119.253 282.418C109.513 276.618 102.289 268.847 97.6925 258.888H95.5036V295.442C95.5036 310.983 96.817 323.46 99.5531 332.872ZM140.267 265.564C153.291 265.564 164.016 262.39 172.334 256.152C180.542 249.913 184.701 241.924 184.701 231.964C184.701 222.005 180.542 213.796 172.334 207.558C164.016 201.32 153.291 198.146 140.267 198.146C127.68 198.146 117.174 201.32 108.856 207.667C100.538 214.125 96.3792 222.224 96.3792 231.964C96.3792 241.048 100.648 248.928 109.075 255.604C117.502 262.28 127.899 265.564 140.267 265.564ZM282.436 288H240.628C243.145 279.354 244.349 268.738 244.349 256.152V209.309C244.349 195.847 243.145 184.793 240.628 175.928H284.077C282.436 178.664 281.122 182.276 280.137 186.982C279.043 191.688 278.496 196.285 278.496 200.772V210.622H280.466C283.202 198.693 288.784 189.39 296.992 182.714C305.2 176.038 315.05 172.754 326.433 172.754C335.079 172.754 342.521 174.068 348.869 176.804V207.339C346.352 204.822 342.412 202.742 337.158 201.101C331.795 199.459 326.651 198.583 321.508 198.583C314.613 198.583 307.827 200.225 301.26 203.618C294.584 207.011 289.112 211.826 284.843 217.955C280.466 224.084 278.277 230.76 278.277 237.984V263.156C278.277 273.444 279.7 281.762 282.436 288ZM405.124 155.024C401.402 157.87 396.587 159.293 390.567 159.293C384.548 159.293 379.732 157.87 376.011 155.024C372.181 152.179 370.32 148.567 370.32 144.08C370.32 139.593 372.181 135.981 376.011 133.135C379.732 130.29 384.548 128.867 390.567 128.867C396.587 128.867 401.402 130.29 405.124 133.135C408.845 135.981 410.705 139.593 410.705 144.08C410.705 148.567 408.845 152.179 405.124 155.024ZM411.581 288H369.444C372.181 279.135 373.494 267.424 373.494 252.759V196.723C373.494 187.42 373.056 180.416 372.181 175.928C377.434 178.008 383.672 178.993 390.786 178.993C397.9 178.993 403.92 178.008 408.954 175.928C407.969 180.853 407.531 187.748 407.531 196.723V252.759C407.531 267.424 408.845 279.135 411.581 288ZM534.05 288H483.596C482.611 281.433 479.327 272.13 473.527 259.982L445.071 205.916C438.833 193.44 432.704 183.48 426.684 175.928H468.383C469.368 182.057 471.994 189.281 476.263 197.489L501.545 248.053C504.719 254.181 507.017 259.435 508.549 263.813H510.3C511.942 259.325 514.24 253.963 517.195 247.834L542.805 197.489C546.855 189.718 549.372 182.495 550.467 175.928H591.18C585.38 183.152 579.141 193.111 572.574 205.916L544.338 260.201C538.537 271.583 535.035 280.886 534.05 288ZM653.017 291.174C635.177 291.174 621.277 287.672 611.537 280.558C601.687 273.553 596.762 264.25 596.762 252.759C596.762 241.267 601.687 232.074 611.427 225.179C621.168 218.284 635.177 214.891 653.235 214.891C665.603 214.891 676.438 216.97 685.741 221.239C694.934 225.507 701.391 230.87 705.003 237.327H707.52V222.552C707.52 201.429 691.87 192.564 663.304 192.564C653.673 192.564 644.261 193.549 635.177 195.628C625.984 197.708 618.432 200.444 612.412 203.727V181.51C619.964 178.883 628.829 176.804 638.898 175.162C648.967 173.521 659.036 172.754 669.105 172.754C690.118 172.754 706.645 175.819 719.887 182.823C733.021 189.937 740.463 202.414 740.463 219.159V253.744C740.463 269.175 741.776 280.667 744.403 288H704.127C706.426 283.622 707.52 277.822 707.52 270.489V267.862H705.222C701.61 274.757 695.262 280.339 685.959 284.607C676.657 288.985 665.712 291.174 653.017 291.174ZM667.135 270.927C680.816 270.927 692.964 268.3 700.625 262.499C704.456 259.544 706.316 256.152 706.316 252.102C706.316 246.739 702.376 242.252 694.496 238.75C686.616 235.248 677.532 233.496 667.135 233.496C643.385 233.496 629.486 240.61 629.486 252.102C629.486 263.594 643.495 270.927 667.135 270.927ZM833.71 291.174C805.911 291.174 783.584 280.667 783.584 251.664V195.628H756.223V175.928H783.584V139.155L816.527 132.041V175.928H867.091V195.628H816.527V242.252C816.527 258.888 826.925 266.439 842.685 266.439C847.61 266.439 852.535 265.673 857.46 264.25C862.385 262.828 866.215 260.967 868.952 258.669V283.951C864.902 286.139 859.649 287.891 852.973 289.204C846.296 290.517 839.839 291.174 833.71 291.174ZM963.293 291.174C939.215 291.174 919.734 285.702 904.74 274.867C889.746 264.032 882.194 249.694 882.194 231.964C881.538 197.489 915.028 172.317 960.448 172.754C981.68 172.754 998.534 176.476 1010.9 184.027C1023.27 191.579 1029.51 200.882 1029.51 212.045C1029.51 223.099 1024.36 231.307 1014.08 236.67C1003.68 242.033 989.451 244.769 971.392 244.769C950.926 244.769 931.882 240.501 914.481 231.964L913.167 233.059C913.824 240.391 916.998 246.958 922.58 252.54C928.161 258.122 935.275 262.39 943.702 265.126C952.13 267.972 961.214 269.394 970.954 269.394C982.118 269.394 992.734 268.081 1002.69 265.345C1012.65 262.718 1020.53 258.997 1026.55 254.181L1027.21 278.369C1020.53 282.309 1011.23 285.373 999.191 287.672C987.152 290.079 975.223 291.174 963.293 291.174ZM962.418 228.571C973.253 228.571 981.899 227.258 988.356 224.631C994.813 222.114 998.097 217.955 998.097 212.264C998.097 207.23 994.704 202.852 987.918 199.021C981.023 195.3 971.72 193.44 960.01 193.44C949.065 193.44 939.106 195.738 930.131 200.335C921.047 205.041 915.575 211.17 913.605 218.94C928.271 225.397 944.578 228.571 962.418 228.571Z" fill="#7F00FF"/>
<path d="M708.274 345.739C700.928 345.739 695.806 341.83 695.806 336.371C695.806 330.911 700.928 327.002 708.274 327.002C715.554 327.002 720.541 330.911 720.541 336.371C720.541 341.83 715.554 345.739 708.274 345.739ZM686.707 456.071C680.371 456.071 674.373 455.195 668.779 453.442L668.644 440.906C673.16 442.995 677.81 444.074 682.596 444.074C691.694 444.074 697.76 439.154 697.76 429.246V368.116C697.76 362.589 697.423 358.545 696.817 355.984C700.052 357.264 703.894 357.871 708.274 357.871C712.655 357.871 716.362 357.264 719.463 355.984C718.856 359.017 718.586 363.061 718.586 368.116V429.111C718.586 447.511 704.77 456.071 686.707 456.071ZM780.458 426.955C766.507 426.955 755.319 423.585 746.827 416.845C738.334 410.105 734.088 401.343 734.088 390.492C734.088 379.641 738.334 370.879 746.827 364.139C755.319 357.399 766.507 354.029 780.458 354.029C794.41 354.029 805.598 357.399 814.023 364.139C822.448 370.879 826.694 379.641 826.694 390.492C826.694 401.343 822.448 410.105 814.023 416.845C805.531 423.585 794.343 426.955 780.458 426.955ZM761.385 407.544C766.372 411.79 772.708 413.947 780.458 413.947C788.209 413.947 794.545 411.79 799.6 407.544C804.587 403.298 807.081 397.569 807.081 390.492C807.081 383.348 804.587 377.619 799.6 373.305C794.545 369.059 788.209 366.902 780.458 366.902C772.708 366.902 766.372 369.059 761.385 373.305C756.33 377.619 753.836 383.348 753.836 390.492C753.836 397.569 756.33 403.298 761.385 407.544ZM901.911 426.955C893.823 426.955 886.746 425.135 880.68 421.495C874.614 417.856 870.166 413.003 867.403 406.937H865.92V409.296C865.92 415.295 866.864 420.484 868.683 425H842.6C844.218 418.665 845.026 410.24 845.026 399.726V351.401C845.026 341.223 844.218 333.54 842.6 328.35H868.548C866.796 333.944 865.92 341.628 865.92 351.401V373.912H867.403C870.166 367.779 874.614 362.926 880.68 359.354C886.679 355.782 893.756 354.029 901.911 354.029C913.638 354.029 923.074 357.399 930.218 364.139C937.295 370.879 940.867 379.641 940.867 390.492C940.867 401.343 937.295 410.105 930.218 416.845C923.074 423.585 913.638 426.955 901.911 426.955ZM893.621 411.183C901.641 411.183 908.246 409.229 913.369 405.387C918.423 401.545 920.985 396.625 920.985 390.492C920.985 384.359 918.423 379.304 913.369 375.462C908.246 371.62 901.641 369.666 893.621 369.666C885.87 369.666 879.4 371.62 874.277 375.529C869.155 379.506 866.594 384.493 866.594 390.492C866.594 396.086 869.222 400.939 874.412 405.05C879.602 409.161 886.005 411.183 893.621 411.183ZM993.573 426.955C987.372 426.955 979.958 426.213 971.399 424.663C962.839 423.18 956.167 421.495 951.516 419.608L951.786 403.298C956.369 406.128 962.57 408.42 970.32 410.24C978.071 412.059 985.35 413.003 992.225 413.003C1006.72 413.003 1013.99 410.105 1013.99 404.309C1013.99 389.414 953.538 402.826 953.538 375.058C953.538 368.79 957.178 363.735 964.389 359.826C971.601 355.984 981.037 354.029 992.764 354.029C998.089 354.029 1004.02 354.501 1010.56 355.512C1017.1 356.523 1022.62 357.804 1027 359.286L1027.54 374.316C1024.1 372.496 1019.18 370.946 1012.78 369.531C1006.38 368.116 1000.31 367.442 994.449 367.442C980.228 367.442 973.151 370.137 973.151 375.462C973.151 389.279 1033.74 376.54 1033.74 404.713C1033.74 411.251 1030.24 416.643 1023.16 420.754C1016.08 424.865 1006.24 426.955 993.573 426.955Z" fill="#0F1014"/>
</svg>
